<svg xmlns="http://www.w3.org/2000/svg" width="174" height="51" viewBox="0 0 174 51" fill="none"><path d="M53.3105 26.8121V49.9628H58.7137V26.8121H53.3105Z" fill="white"></path><path d="M78.476 26.8127V39.0644C78.476 39.4353 78.488 39.8299 78.5093 40.2483C78.5306 40.6667 78.5616 41.097 78.6044 41.5414L67.6079 27.6403C67.4859 27.4877 67.3533 27.3439 67.2111 27.21C67.103 27.1103 66.9804 27.0277 66.8474 26.9651C66.7108 26.9038 66.5657 26.8636 66.4171 26.8457C66.2224 26.8217 66.0262 26.8105 65.83 26.8123H63.0012V49.9634H67.7358V37.5549C67.7358 37.2149 67.7263 36.8536 67.7048 36.4661C67.6833 36.0786 67.6573 35.6841 67.624 35.2824L78.5397 49.0743C78.7551 49.3706 79.0389 49.6103 79.3669 49.7732C79.6993 49.9085 80.0563 49.9733 80.4151 49.9634H83.2105V26.8127H78.476Z" fill="white"></path><path d="M101.931 30.9437V26.8121H87.027V49.9628H92.4301V40.9538H100.343V36.8079H92.4309V30.9437H101.931Z" fill="white"></path><path d="M105.204 49.9635H110.607V35.2515L105.204 29.8484V49.9635Z" fill="white"></path><path d="M130.371 26.8121V39.0639C130.371 39.4347 130.381 39.8294 130.402 40.2477C130.424 40.6661 130.454 41.0964 130.497 41.5408L119.503 27.6397C119.38 27.4882 119.247 27.3445 119.106 27.2094C118.887 27.0057 118.608 26.8782 118.31 26.8458C118.116 26.8217 117.919 26.8106 117.723 26.8123H114.894V49.9628H119.629V37.5543C119.629 37.2143 119.62 36.8531 119.598 36.4655C119.577 36.078 119.55 35.6835 119.517 35.2819L130.433 49.0738C130.649 49.3695 130.932 49.6091 131.26 49.7726C131.593 49.908 131.95 49.9727 132.309 49.9628H135.104V26.8121H130.371Z" fill="white"></path><path d="M139.394 26.8121V49.9628H144.797V26.8121H139.394Z" fill="white"></path><path d="M147.499 26.8121V31.072H154.012V49.9628H159.383V31.072H165.897V26.8121H147.499Z" fill="white"></path><path d="M168.597 26.8121V49.9628H174V26.8121H168.597Z" fill="white"></path><path d="M110.606 26.8121V32.2176L107.903 29.5149L110.606 26.8121Z" fill="#D22635"></path><path d="M110.605 26.8121L107.903 29.5149L105.2 26.8121H110.605Z" fill="#F8B133"></path><path fill-rule="evenodd" clip-rule="evenodd" d="M29.83 5.29395H4.82983C5.30463 4.75794 5.82081 4.2763 6.38114 3.84566C9.34336 1.58459 13.0383 0.4482 17.4809 0.4482C22.3477 0.4482 26.17 1.76771 28.9584 4.3967C29.2665 4.68686 29.5569 4.98706 29.83 5.29395Z" fill="#FBCC38"></path><path fill-rule="evenodd" clip-rule="evenodd" d="M4.82996 5.29393H29.8301C31.5337 7.20296 32.5771 9.41971 32.9592 11.9425H23.1544C22.8721 11.1857 22.4622 10.5377 21.9224 9.99752C20.7976 8.86197 19.2372 8.2992 17.2513 8.2992C15.2766 8.2992 13.7162 8.89542 12.5451 10.0895C12.0701 10.5745 11.6787 11.1916 11.3677 11.9425H1.62341C2.26427 9.20062 3.33242 6.98388 4.82996 5.29393Z" fill="#F9BC00"></path><path fill-rule="evenodd" clip-rule="evenodd" d="M23.1543 11.9425H32.9591C33.0704 12.6733 33.126 13.4292 33.126 14.2102C33.126 15.7221 32.9406 17.1796 32.5749 18.5911H22.8082C23.3499 17.3418 23.6219 16.1009 23.6219 14.865C23.6219 13.7554 23.4664 12.782 23.1543 11.9425ZM1.62334 11.9425H11.3676C10.9216 13.0229 10.6455 14.38 10.5373 16.0122L1.10114 15.0715C1.2218 13.9611 1.39581 12.9192 1.62334 11.9425Z" fill="#BD9819"></path><path fill-rule="evenodd" clip-rule="evenodd" d="M22.8079 18.5911H32.5746C32.4007 19.2609 32.1864 19.919 31.9319 20.5687C31.3385 22.073 30.4816 23.6283 29.361 25.2413H17.5043C19.6355 23.1375 21.0228 21.6097 21.6697 20.6607C22.1311 19.9683 22.5101 19.2793 22.8079 18.5911Z" fill="#A27A24"></path><path fill-rule="evenodd" clip-rule="evenodd" d="M17.5044 25.2412H29.3611C28.9851 25.7806 28.5792 26.3291 28.1435 26.881C27.1948 28.1085 25.5901 29.7776 23.3488 31.8915H10.5692C11.5745 30.8897 12.6653 29.8395 13.8427 28.7415C15.2414 27.4371 16.4609 26.2714 17.5044 25.2412Z" fill="#FDDB73"></path><path fill-rule="evenodd" clip-rule="evenodd" d="M10.5693 31.8914H23.3489C22.9058 32.307 22.4383 32.7418 21.9459 33.1951C19.0761 35.8215 17.218 37.5976 16.3705 38.5392H4.61969C6.0505 36.6318 8.03429 34.4151 10.5693 31.8914Z" fill="#FBCC38"></path><path fill-rule="evenodd" clip-rule="evenodd" d="M4.61983 38.5392H16.3706C16.3333 38.5802 16.2974 38.6195 16.2645 38.6588C15.461 39.5543 14.8183 40.4365 14.3239 41.2869H33.1261V45.1886H1.07043C1.60911 43.6107 2.32807 42.0763 3.22522 40.5887C3.60929 39.9498 4.07497 39.2658 4.61983 38.5392Z" fill="#F9BC00"></path><path fill-rule="evenodd" clip-rule="evenodd" d="M1.07024 45.1887H33.1259V50.0344H0C0.177022 48.3737 0.534493 46.7591 1.07024 45.1887Z" fill="#BD9819"></path><path fill-rule="evenodd" clip-rule="evenodd" d="M66.682 5.29395H35.7504C40.023 1.97593 45.3883 -4.76837e-06 51.2149 -4.76837e-06C57.0432 -4.76837e-06 62.4099 1.97593 66.682 5.29395Z" fill="#FBCC38"></path><path fill-rule="evenodd" clip-rule="evenodd" d="M35.7505 5.29393H66.6821C69.0511 7.13355 71.0822 9.38542 72.6726 11.9425H58.7157C56.5015 10.6899 53.9427 9.97494 51.215 9.97494C48.4899 9.97494 45.9311 10.6899 43.716 11.9425H29.7608C31.3502 9.38542 33.3814 7.13188 35.7505 5.29393Z" fill="#F9BC00"></path><path fill-rule="evenodd" clip-rule="evenodd" d="M58.7158 11.9425H72.6727C73.6594 13.5329 74.4781 15.2421 75.096 17.0433L73.5466 18.5911H64.9605C63.605 15.7915 61.415 13.4677 58.7158 11.9425ZM29.7609 11.9425H43.7162C41.0161 13.4677 38.8284 15.7915 37.4706 18.5911H26.8622C27.5091 16.2179 28.4928 13.9828 29.7609 11.9425Z" fill="#BD9819"></path><path fill-rule="evenodd" clip-rule="evenodd" d="M64.9603 18.5911H73.5463L66.8961 25.2413H66.4805C66.4805 22.8582 65.9361 20.6021 64.9603 18.5911ZM26.862 18.5911H37.4704C36.4961 20.6021 35.9501 22.8582 35.9501 25.2413H25.9753C25.9753 22.9393 26.2853 20.71 26.862 18.5911Z" fill="#A27A24"></path><path fill-rule="evenodd" clip-rule="evenodd" d="M66.4805 25.2412H66.8961L66.4763 25.6618C66.4805 25.5222 66.4805 25.3817 66.4805 25.2412ZM25.9753 25.2412H35.9501C35.9501 27.6244 36.4961 29.8804 37.4704 31.8915H26.861C26.2843 29.7717 25.9753 27.5424 25.9753 25.2412Z" fill="#FDDB73"></path><path fill-rule="evenodd" clip-rule="evenodd" d="M26.8611 31.8914H37.4705C38.8282 34.691 41.0168 37.0123 43.716 38.5392H29.7598C28.4927 36.4972 27.5081 34.2646 26.8611 31.8914Z" fill="#FBCC38"></path><path fill-rule="evenodd" clip-rule="evenodd" d="M29.7598 38.5392H43.7161C45.9311 39.7918 48.4899 40.5067 51.2151 40.5067C51.3555 40.5067 51.4977 40.5042 51.6357 40.5026L46.9488 45.1886H35.7495C33.3803 43.349 31.3481 41.0954 29.7598 38.5392Z" fill="#F9BC00"></path><path fill-rule="evenodd" clip-rule="evenodd" d="M35.7496 45.1887H46.9489L43.0188 49.1213C40.3681 48.2116 37.9177 46.872 35.7496 45.1887Z" fill="#BD9819"></path><path d="M66.798 17.3864C66.5348 17.3864 66.3248 17.3136 66.168 17.168C66.0168 17.0224 65.9412 16.804 65.9412 16.5128C65.9412 16.3504 65.9636 16.1572 66.0084 15.9332C66.0532 15.7092 66.112 15.4712 66.1848 15.2192C66.2632 14.9616 66.3472 14.7096 66.4368 14.4632C66.3864 14.4464 66.3388 14.4324 66.294 14.4212C66.2548 14.4044 66.2016 14.382 66.1344 14.354V14.0936C66.2352 14.1104 66.3108 14.1272 66.3612 14.144C66.4116 14.1552 66.4732 14.1664 66.546 14.1776C66.7028 13.78 66.8708 13.4132 67.05 13.0772C67.2292 12.7412 67.4028 12.4724 67.5708 12.2708C67.7388 12.0692 67.8844 11.9684 68.0076 11.9684C68.0692 11.9684 68.1252 11.9908 68.1756 12.0356C68.226 12.0804 68.2512 12.1308 68.2512 12.1868C68.2512 12.254 68.2176 12.3632 68.1504 12.5144C68.0832 12.6656 67.9964 12.8364 67.89 13.0268C67.7892 13.2116 67.6856 13.3964 67.5792 13.5812C67.4784 13.766 67.386 13.9256 67.302 14.06C67.2236 14.1944 67.176 14.2812 67.1592 14.3204C67.3048 14.3428 67.4392 14.3624 67.5624 14.3792C67.6856 14.3904 67.8088 14.396 67.932 14.396C68.0944 14.396 68.2624 14.3848 68.436 14.3624C68.6096 14.34 68.8028 14.3092 69.0156 14.27C69.1668 13.8668 69.3348 13.472 69.5196 13.0856C69.7044 12.6936 69.892 12.3436 70.0824 12.0356C70.2784 11.722 70.4632 11.4728 70.6368 11.288C70.816 11.0976 70.9728 11.0024 71.1072 11.0024C71.2192 11.0024 71.306 11.0668 71.3676 11.1956C71.4292 11.3188 71.46 11.4532 71.46 11.5988C71.46 11.7836 71.4124 12.0076 71.3172 12.2708C71.222 12.534 71.0904 12.8056 70.9224 13.0856C70.7544 13.3656 70.5556 13.6288 70.326 13.8752C70.102 14.1216 69.8584 14.3204 69.5952 14.4716C69.5224 14.6396 69.4552 14.8496 69.3936 15.1016C69.3376 15.348 69.2928 15.5888 69.2592 15.824C69.2256 16.0592 69.2088 16.2468 69.2088 16.3868C69.3432 16.034 69.4944 15.7092 69.6624 15.4124C69.8304 15.1156 70.018 14.8776 70.2252 14.6984C70.438 14.5192 70.6676 14.4296 70.914 14.4296C71.1716 14.4296 71.3592 14.5164 71.4768 14.69C71.5944 14.858 71.6532 15.0428 71.6532 15.2444C71.6532 15.4068 71.6224 15.572 71.5608 15.74C71.5048 15.9024 71.446 16.0592 71.3844 16.2104C71.3284 16.356 71.3004 16.4876 71.3004 16.6052C71.3004 16.706 71.3228 16.776 71.3676 16.8152C71.418 16.8544 71.4712 16.874 71.5272 16.874C71.6504 16.874 71.7932 16.8124 71.9556 16.6892C72.1236 16.5604 72.286 16.3924 72.4428 16.1852C72.6052 15.978 72.7396 15.7568 72.846 15.5216L73.0056 15.6728C72.8824 15.9528 72.734 16.2104 72.5604 16.4456C72.3868 16.6808 72.1936 16.8656 71.9808 17C71.7736 17.14 71.5524 17.21 71.3172 17.21C71.1044 17.21 70.9392 17.154 70.8216 17.042C70.7096 16.93 70.6536 16.79 70.6536 16.622C70.6536 16.5044 70.6732 16.3784 70.7124 16.244C70.7572 16.104 70.7992 15.9612 70.8384 15.8156C70.8776 15.67 70.8972 15.5356 70.8972 15.4124C70.8972 15.2836 70.8692 15.1912 70.8132 15.1352C70.7628 15.0792 70.6928 15.0512 70.6032 15.0512C70.4688 15.0512 70.3456 15.1072 70.2336 15.2192C70.1272 15.3256 70.0292 15.4656 69.9396 15.6392C69.85 15.8128 69.766 15.9976 69.6876 16.1936C69.6092 16.384 69.5308 16.566 69.4524 16.7396C69.3796 16.9132 69.3012 17.0532 69.2172 17.1596C69.1388 17.2716 69.052 17.3276 68.9568 17.3276C68.8728 17.3276 68.8028 17.2856 68.7468 17.2016C68.6964 17.1176 68.6544 17.0168 68.6208 16.8992C68.5872 16.7816 68.5648 16.6668 68.5536 16.5548C68.5424 16.4372 68.5368 16.3476 68.5368 16.286C68.3128 16.6108 68.0496 16.874 67.7472 17.0756C67.4504 17.2828 67.134 17.3864 66.798 17.3864ZM67.0416 16.9664C67.3216 16.9664 67.6016 16.846 67.8816 16.6052C68.1672 16.3588 68.4136 16.0228 68.6208 15.5972C68.6544 15.4292 68.6908 15.2696 68.73 15.1184C68.7692 14.9672 68.8196 14.802 68.8812 14.6228C68.7132 14.6564 68.5508 14.6816 68.394 14.6984C68.2372 14.7152 68.0832 14.7236 67.932 14.7236C67.7808 14.7236 67.6296 14.7152 67.4784 14.6984C67.3272 14.6816 67.1732 14.6592 67.0164 14.6312C66.8932 14.9056 66.7924 15.1828 66.714 15.4628C66.6356 15.7428 66.5964 16.0284 66.5964 16.3196C66.5964 16.5492 66.6272 16.7144 66.6888 16.8152C66.756 16.916 66.8736 16.9664 67.0416 16.9664ZM69.7632 13.9424C69.9256 13.8024 70.0768 13.6456 70.2168 13.472C70.3568 13.2984 70.48 13.122 70.5864 12.9428C70.6984 12.758 70.7908 12.5844 70.8636 12.422C70.942 12.254 70.9952 12.1084 71.0232 11.9852C71.04 11.9068 71.0484 11.8452 71.0484 11.8004C71.0036 11.8116 70.9308 11.8732 70.83 11.9852C70.7348 12.0972 70.6228 12.2512 70.494 12.4472C70.3652 12.6376 70.2364 12.8616 70.1076 13.1192C69.9788 13.3712 69.864 13.6456 69.7632 13.9424Z" fill="white"></path><path d="M79.7944 23.805C79.1844 23.805 78.6694 23.675 78.2494 23.415C77.8394 23.165 77.6344 22.8 77.6344 22.32C77.6344 22.01 77.7294 21.73 77.9194 21.48C78.1194 21.23 78.4044 21.065 78.7744 20.985C78.7144 21.255 78.6694 21.46 78.6394 21.6C78.6194 21.74 78.6094 21.875 78.6094 22.005C78.6094 22.405 78.7194 22.715 78.9394 22.935C79.1594 23.165 79.5044 23.28 79.9744 23.28C80.3144 23.28 80.6144 23.22 80.8744 23.1C81.1444 22.99 81.3794 22.83 81.5794 22.62C81.7894 22.42 81.9694 22.185 82.1194 21.915C82.2794 21.645 82.4144 21.35 82.5244 21.03C82.6444 20.72 82.7444 20.4 82.8244 20.07C82.9844 19.43 83.1094 18.805 83.1994 18.195C83.2894 17.575 83.3944 17.075 83.5144 16.695C83.1244 17.325 82.6744 17.84 82.1644 18.24C81.6544 18.63 81.0594 18.825 80.3794 18.825C79.7094 18.825 79.2344 18.64 78.9544 18.27C78.6744 17.9 78.5344 17.445 78.5344 16.905C78.5344 16.535 78.5794 16.135 78.6694 15.705C78.7694 15.265 78.8844 14.82 79.0144 14.37C79.1444 13.91 79.2544 13.47 79.3444 13.05C79.4444 12.62 79.4944 12.24 79.4944 11.91C79.4944 11.61 79.4344 11.355 79.3144 11.145C79.2044 10.935 78.9944 10.83 78.6844 10.83C78.4144 10.83 78.1794 10.91 77.9794 11.07C77.7894 11.22 77.6294 11.42 77.4994 11.67C77.3794 11.92 77.2894 12.185 77.2294 12.465C77.1694 12.745 77.1394 13.015 77.1394 13.275C77.1394 13.435 77.1494 13.57 77.1694 13.68C77.1994 13.79 77.2494 13.935 77.3194 14.115C76.8294 14.115 76.4844 14.005 76.2844 13.785C76.0844 13.555 75.9844 13.28 75.9844 12.96C75.9844 12.66 76.0594 12.35 76.2094 12.03C76.3594 11.7 76.5694 11.4 76.8394 11.13C77.1194 10.85 77.4444 10.625 77.8144 10.455C78.1844 10.285 78.5844 10.2 79.0144 10.2C79.4144 10.2 79.7444 10.275 80.0044 10.425C80.2644 10.575 80.4544 10.775 80.5744 11.025C80.7044 11.275 80.7694 11.55 80.7694 11.85C80.7694 12.07 80.7344 12.335 80.6644 12.645C80.5944 12.955 80.4894 13.365 80.3494 13.875C80.2094 14.385 80.0844 14.87 79.9744 15.33C79.8644 15.78 79.8094 16.205 79.8094 16.605C79.8094 17.025 79.8894 17.365 80.0494 17.625C80.2094 17.885 80.4844 18.015 80.8744 18.015C81.2144 18.015 81.5344 17.92 81.8344 17.73C82.1444 17.53 82.4344 17.265 82.7044 16.935C82.9744 16.595 83.2194 16.21 83.4394 15.78C83.6594 15.35 83.8494 14.895 84.0094 14.415C84.1394 14.035 84.2694 13.61 84.3994 13.14C84.5394 12.66 84.6844 12.195 84.8344 11.745C84.9944 11.295 85.1594 10.925 85.3294 10.635C85.5094 10.345 85.6994 10.2 85.8994 10.2C86.0094 10.2 86.1594 10.25 86.3494 10.35C86.5494 10.45 86.7394 10.59 86.9194 10.77C86.6994 11.1 86.5094 11.415 86.3494 11.715C86.1994 12.015 86.0544 12.34 85.9144 12.69C85.7844 13.04 85.6494 13.455 85.5094 13.935C85.3694 14.405 85.2144 14.98 85.0444 15.66C84.8744 16.33 84.6744 17.145 84.4444 18.105C84.3144 18.625 84.1644 19.155 83.9944 19.695C83.8344 20.225 83.6344 20.735 83.3944 21.225C83.1644 21.715 82.8844 22.155 82.5544 22.545C82.2244 22.935 81.8344 23.24 81.3844 23.46C80.9344 23.69 80.4044 23.805 79.7944 23.805ZM87.5276 21.66C86.8876 21.66 86.3926 21.485 86.0426 21.135C85.7026 20.795 85.5326 20.365 85.5326 19.845C85.5326 19.405 85.6426 18.94 85.8626 18.45C86.0926 17.95 86.3976 17.485 86.7776 17.055C87.1576 16.615 87.5776 16.26 88.0376 15.99C88.4976 15.72 88.9576 15.585 89.4176 15.585C89.6776 15.585 89.9226 15.655 90.1526 15.795C90.3926 15.925 90.5126 16.19 90.5126 16.59C90.5126 16.97 90.4026 17.325 90.1826 17.655C89.9626 17.985 89.6676 18.28 89.2976 18.54C88.9276 18.8 88.5176 19.015 88.0676 19.185C87.6276 19.345 87.1826 19.45 86.7326 19.5C86.7226 19.54 86.7126 19.585 86.7026 19.635C86.7026 19.675 86.7026 19.745 86.7026 19.845C86.7026 19.895 86.7076 19.985 86.7176 20.115C86.7376 20.235 86.7826 20.365 86.8526 20.505C86.9226 20.645 87.0376 20.765 87.1976 20.865C87.3576 20.965 87.5776 21.015 87.8576 21.015C88.2776 21.015 88.6976 20.9 89.1176 20.67C89.5476 20.43 89.9476 20.115 90.3176 19.725C90.6976 19.335 91.0126 18.9 91.2626 18.42L91.5626 18.66C91.2926 19.26 90.9426 19.785 90.5126 20.235C90.0926 20.685 89.6226 21.035 89.1026 21.285C88.5926 21.535 88.0676 21.66 87.5276 21.66ZM86.8976 18.945C87.1576 18.915 87.4476 18.825 87.7676 18.675C88.0876 18.525 88.3926 18.335 88.6826 18.105C88.9826 17.875 89.2276 17.625 89.4176 17.355C89.6076 17.075 89.7026 16.795 89.7026 16.515C89.7026 16.405 89.6826 16.33 89.6426 16.29C89.6026 16.25 89.5376 16.23 89.4476 16.23C89.2176 16.23 88.9776 16.315 88.7276 16.485C88.4776 16.645 88.2326 16.86 87.9926 17.13C87.7526 17.39 87.5376 17.68 87.3476 18C87.1576 18.32 87.0076 18.635 86.8976 18.945ZM91.7399 21.705C91.4099 21.705 91.1249 21.595 90.8849 21.375C90.6349 21.155 90.5099 20.825 90.5099 20.385C90.5099 20.035 90.5899 19.655 90.7499 19.245C90.9099 18.835 91.1299 18.43 91.4099 18.03C91.6899 17.63 92.0099 17.27 92.3699 16.95C92.7299 16.62 93.1149 16.355 93.5249 16.155C93.9349 15.955 94.3449 15.855 94.7549 15.855C95.1849 15.855 95.5499 15.965 95.8499 16.185C96.1499 16.405 96.2999 16.695 96.2999 17.055C96.2999 17.325 96.2049 17.52 96.0149 17.64C95.8249 17.76 95.5999 17.795 95.3399 17.745C95.3599 17.655 95.3749 17.565 95.3849 17.475C95.4049 17.385 95.4149 17.29 95.4149 17.19C95.4149 16.99 95.3749 16.81 95.2949 16.65C95.2149 16.49 95.0449 16.41 94.7849 16.41C94.5049 16.41 94.2199 16.505 93.9299 16.695C93.6399 16.885 93.3599 17.135 93.0899 17.445C92.8299 17.745 92.5949 18.08 92.3849 18.45C92.1749 18.81 92.0099 19.165 91.8899 19.515C91.7699 19.865 91.7099 20.18 91.7099 20.46C91.7099 20.78 91.8249 20.94 92.0549 20.94C92.2849 20.94 92.5399 20.83 92.8199 20.61C93.0999 20.38 93.3799 20.095 93.6599 19.755C93.9499 19.415 94.2249 19.07 94.4849 18.72C94.7449 18.36 94.9699 18.055 95.1599 17.805C95.1899 17.755 95.2299 17.73 95.2799 17.73C95.3199 17.74 95.3949 17.765 95.5049 17.805C95.6249 17.835 95.7349 17.885 95.8349 17.955C95.9349 18.025 95.9849 18.115 95.9849 18.225C95.9849 18.325 95.9399 18.455 95.8499 18.615C95.7699 18.765 95.6699 18.935 95.5499 19.125C95.4399 19.305 95.3399 19.49 95.2499 19.68C95.1699 19.86 95.1299 20.035 95.1299 20.205C95.1299 20.335 95.1649 20.46 95.2349 20.58C95.3049 20.69 95.4199 20.745 95.5799 20.745C95.8199 20.745 96.1549 20.57 96.5849 20.22C97.0249 19.86 97.4699 19.255 97.9199 18.405L98.2049 18.69C97.9649 19.23 97.6749 19.71 97.3349 20.13C97.0049 20.54 96.6549 20.86 96.2849 21.09C95.9149 21.33 95.5399 21.45 95.1599 21.45C94.7499 21.45 94.4449 21.32 94.2449 21.06C94.0449 20.8 93.9349 20.52 93.9149 20.22C93.9149 20.2 93.9149 20.185 93.9149 20.175C93.9149 20.165 93.9149 20.155 93.9149 20.145C93.5149 20.625 93.1449 21.005 92.8049 21.285C92.4749 21.565 92.1199 21.705 91.7399 21.705ZM100.34 21.39C99.97 21.39 99.67 21.29 99.44 21.09C99.21 20.9 99.095 20.64 99.095 20.31C99.095 20.03 99.165 19.73 99.305 19.41C99.445 19.09 99.585 18.775 99.725 18.465C99.875 18.155 99.95 17.88 99.95 17.64C99.95 17.41 99.875 17.22 99.725 17.07C99.575 16.91 99.4 16.78 99.2 16.68C98.98 17.23 98.73 17.765 98.45 18.285C98.18 18.795 97.96 19.195 97.79 19.485L97.565 19.05C97.705 18.79 97.89 18.42 98.12 17.94C98.35 17.46 98.57 16.925 98.78 16.335C98.68 16.235 98.63 16.1 98.63 15.93C98.63 15.67 98.71 15.425 98.87 15.195C99.03 14.965 99.185 14.85 99.335 14.85C99.455 14.85 99.54 14.92 99.59 15.06C99.65 15.19 99.68 15.28 99.68 15.33C99.68 15.38 99.655 15.47 99.605 15.6C99.565 15.73 99.535 15.825 99.515 15.885C99.525 15.995 99.61 16.105 99.77 16.215C99.94 16.315 100.13 16.435 100.34 16.575C100.55 16.715 100.735 16.89 100.895 17.1C101.055 17.31 101.135 17.575 101.135 17.895C101.135 18.185 101.07 18.48 100.94 18.78C100.81 19.08 100.68 19.36 100.55 19.62C100.42 19.88 100.355 20.105 100.355 20.295C100.355 20.435 100.39 20.53 100.46 20.58C100.54 20.62 100.63 20.64 100.73 20.64C100.97 20.64 101.22 20.57 101.48 20.43C101.74 20.28 101.995 20.09 102.245 19.86C102.495 19.63 102.715 19.39 102.905 19.14C103.095 18.88 103.24 18.645 103.34 18.435L103.7 18.705C103.51 19.135 103.235 19.56 102.875 19.98C102.515 20.39 102.115 20.73 101.675 21C101.235 21.26 100.79 21.39 100.34 21.39ZM110.661 22.305C109.901 22.305 109.276 22.125 108.786 21.765C108.306 21.405 107.951 20.94 107.721 20.37C107.501 19.8 107.391 19.21 107.391 18.6C107.391 17.81 107.511 17.02 107.751 16.23C107.991 15.43 108.321 14.67 108.741 13.95C109.171 13.23 109.656 12.59 110.196 12.03C110.736 11.47 111.311 11.03 111.921 10.71C112.541 10.38 113.156 10.215 113.766 10.215C114.206 10.215 114.576 10.32 114.876 10.53C115.176 10.73 115.326 11.08 115.326 11.58C115.326 11.88 115.271 12.215 115.161 12.585C115.061 12.955 114.921 13.315 114.741 13.665C114.571 14.005 114.376 14.285 114.156 14.505C113.936 14.725 113.711 14.835 113.481 14.835C113.381 14.835 113.276 14.8 113.166 14.73C113.056 14.66 112.956 14.54 112.866 14.37C113.016 14.2 113.186 13.995 113.376 13.755C113.566 13.505 113.746 13.245 113.916 12.975C114.086 12.695 114.226 12.425 114.336 12.165C114.446 11.895 114.501 11.66 114.501 11.46C114.501 11.28 114.451 11.14 114.351 11.04C114.251 10.93 114.076 10.875 113.826 10.875C113.386 10.875 112.931 11.04 112.461 11.37C112.001 11.7 111.556 12.145 111.126 12.705C110.696 13.255 110.306 13.875 109.956 14.565C109.616 15.245 109.346 15.95 109.146 16.68C108.946 17.4 108.846 18.085 108.846 18.735C108.846 19.215 108.916 19.675 109.056 20.115C109.206 20.545 109.441 20.895 109.761 21.165C110.081 21.445 110.501 21.585 111.021 21.585C111.561 21.585 112.096 21.435 112.626 21.135C113.166 20.835 113.656 20.44 114.096 19.95C114.546 19.46 114.906 18.935 115.176 18.375L115.566 18.63C115.216 19.3 114.796 19.915 114.306 20.475C113.816 21.025 113.261 21.465 112.641 21.795C112.031 22.135 111.371 22.305 110.661 22.305ZM116.561 21.66C115.921 21.66 115.426 21.485 115.076 21.135C114.736 20.795 114.566 20.365 114.566 19.845C114.566 19.405 114.676 18.94 114.896 18.45C115.126 17.95 115.431 17.485 115.811 17.055C116.191 16.615 116.611 16.26 117.071 15.99C117.531 15.72 117.991 15.585 118.451 15.585C118.711 15.585 118.956 15.655 119.186 15.795C119.426 15.925 119.546 16.19 119.546 16.59C119.546 16.97 119.436 17.325 119.216 17.655C118.996 17.985 118.701 18.28 118.331 18.54C117.961 18.8 117.551 19.015 117.101 19.185C116.661 19.345 116.216 19.45 115.766 19.5C115.756 19.54 115.746 19.585 115.736 19.635C115.736 19.675 115.736 19.745 115.736 19.845C115.736 19.895 115.741 19.985 115.751 20.115C115.771 20.235 115.816 20.365 115.886 20.505C115.956 20.645 116.071 20.765 116.231 20.865C116.391 20.965 116.611 21.015 116.891 21.015C117.311 21.015 117.731 20.9 118.151 20.67C118.581 20.43 118.981 20.115 119.351 19.725C119.731 19.335 120.046 18.9 120.296 18.42L120.596 18.66C120.326 19.26 119.976 19.785 119.546 20.235C119.126 20.685 118.656 21.035 118.136 21.285C117.626 21.535 117.101 21.66 116.561 21.66ZM115.931 18.945C116.191 18.915 116.481 18.825 116.801 18.675C117.121 18.525 117.426 18.335 117.716 18.105C118.016 17.875 118.261 17.625 118.451 17.355C118.641 17.075 118.736 16.795 118.736 16.515C118.736 16.405 118.716 16.33 118.676 16.29C118.636 16.25 118.571 16.23 118.481 16.23C118.251 16.23 118.011 16.315 117.761 16.485C117.511 16.645 117.266 16.86 117.026 17.13C116.786 17.39 116.571 17.68 116.381 18C116.191 18.32 116.041 18.635 115.931 18.945ZM121.223 21.45C120.753 21.45 120.423 21.295 120.233 20.985C120.053 20.665 119.963 20.29 119.963 19.86C119.963 19.37 120.053 18.795 120.233 18.135C120.413 17.475 120.648 16.785 120.938 16.065C121.238 15.335 121.563 14.625 121.913 13.935C122.273 13.235 122.633 12.605 122.993 12.045C123.353 11.485 123.683 11.04 123.983 10.71C124.293 10.37 124.543 10.2 124.733 10.2C124.863 10.2 124.973 10.27 125.063 10.41C125.153 10.54 125.223 10.7 125.273 10.89C125.333 11.07 125.363 11.24 125.363 11.4C125.363 11.67 125.293 12.025 125.153 12.465C125.023 12.895 124.833 13.37 124.583 13.89C124.343 14.41 124.053 14.945 123.713 15.495C123.383 16.035 123.013 16.55 122.603 17.04C122.203 17.53 121.773 17.955 121.313 18.315C121.273 18.565 121.233 18.815 121.193 19.065C121.163 19.305 121.148 19.525 121.148 19.725C121.148 20.085 121.208 20.35 121.328 20.52C121.448 20.68 121.603 20.76 121.793 20.76C122.043 20.76 122.298 20.645 122.558 20.415C122.828 20.175 123.083 19.875 123.323 19.515C123.573 19.145 123.788 18.765 123.968 18.375L124.328 18.57C123.898 19.46 123.418 20.165 122.888 20.685C122.358 21.195 121.803 21.45 121.223 21.45ZM121.583 17.385C121.923 17.015 122.243 16.615 122.543 16.185C122.853 15.745 123.133 15.3 123.383 14.85C123.643 14.4 123.868 13.965 124.058 13.545C124.248 13.125 124.393 12.75 124.493 12.42C124.603 12.08 124.663 11.81 124.673 11.61C124.673 11.6 124.673 11.595 124.673 11.595C124.673 11.585 124.673 11.575 124.673 11.565C124.593 11.565 124.463 11.68 124.283 11.91C124.113 12.13 123.908 12.435 123.668 12.825C123.428 13.215 123.178 13.66 122.918 14.16C122.668 14.66 122.423 15.19 122.183 15.75C121.953 16.3 121.753 16.845 121.583 17.385ZM125.35 21.66C124.71 21.66 124.215 21.485 123.865 21.135C123.525 20.795 123.355 20.365 123.355 19.845C123.355 19.405 123.465 18.94 123.685 18.45C123.915 17.95 124.22 17.485 124.6 17.055C124.98 16.615 125.4 16.26 125.86 15.99C126.32 15.72 126.78 15.585 127.24 15.585C127.5 15.585 127.745 15.655 127.975 15.795C128.215 15.925 128.335 16.19 128.335 16.59C128.335 16.97 128.225 17.325 128.005 17.655C127.785 17.985 127.49 18.28 127.12 18.54C126.75 18.8 126.34 19.015 125.89 19.185C125.45 19.345 125.005 19.45 124.555 19.5C124.545 19.54 124.535 19.585 124.525 19.635C124.525 19.675 124.525 19.745 124.525 19.845C124.525 19.895 124.53 19.985 124.54 20.115C124.56 20.235 124.605 20.365 124.675 20.505C124.745 20.645 124.86 20.765 125.02 20.865C125.18 20.965 125.4 21.015 125.68 21.015C126.1 21.015 126.52 20.9 126.94 20.67C127.37 20.43 127.77 20.115 128.14 19.725C128.52 19.335 128.835 18.9 129.085 18.42L129.385 18.66C129.115 19.26 128.765 19.785 128.335 20.235C127.915 20.685 127.445 21.035 126.925 21.285C126.415 21.535 125.89 21.66 125.35 21.66ZM124.72 18.945C124.98 18.915 125.27 18.825 125.59 18.675C125.91 18.525 126.215 18.335 126.505 18.105C126.805 17.875 127.05 17.625 127.24 17.355C127.43 17.075 127.525 16.795 127.525 16.515C127.525 16.405 127.505 16.33 127.465 16.29C127.425 16.25 127.36 16.23 127.27 16.23C127.04 16.23 126.8 16.315 126.55 16.485C126.3 16.645 126.055 16.86 125.815 17.13C125.575 17.39 125.36 17.68 125.17 18C124.98 18.32 124.83 18.635 124.72 18.945ZM130.312 22.095C129.742 22.095 129.307 21.915 129.007 21.555C128.717 21.205 128.572 20.72 128.572 20.1C128.572 19.6 128.657 19.015 128.827 18.345C128.997 17.675 129.222 16.975 129.502 16.245C129.782 15.505 130.097 14.785 130.447 14.085C130.797 13.375 131.152 12.735 131.512 12.165C131.872 11.595 132.212 11.14 132.532 10.8C132.852 10.46 133.127 10.29 133.357 10.29C133.557 10.29 133.707 10.405 133.807 10.635C133.907 10.865 133.957 11.105 133.957 11.355C133.957 11.625 133.897 11.96 133.777 12.36C133.657 12.76 133.487 13.185 133.267 13.635C133.047 14.075 132.792 14.515 132.502 14.955C132.212 15.395 131.892 15.795 131.542 16.155C131.202 16.515 130.847 16.8 130.477 17.01C130.407 17.14 130.317 17.365 130.207 17.685C130.107 18.005 130.012 18.37 129.922 18.78C129.842 19.18 129.802 19.575 129.802 19.965C129.802 20.365 129.862 20.69 129.982 20.94C130.112 21.19 130.322 21.315 130.612 21.315C130.872 21.315 131.147 21.21 131.437 21C131.727 20.8 131.967 20.545 132.157 20.235C131.787 20.035 131.507 19.755 131.317 19.395C131.127 19.035 131.032 18.655 131.032 18.255C131.032 17.775 131.162 17.385 131.422 17.085C131.682 16.775 132.007 16.62 132.397 16.62C132.717 16.62 132.982 16.745 133.192 16.995C133.402 17.235 133.507 17.62 133.507 18.15C133.507 18.42 133.472 18.71 133.402 19.02C133.342 19.32 133.242 19.63 133.102 19.95C133.132 19.96 133.157 19.965 133.177 19.965C133.207 19.965 133.237 19.965 133.267 19.965C133.667 19.965 134.017 19.84 134.317 19.59C134.617 19.33 134.882 19.005 135.112 18.615C135.342 18.225 135.537 17.82 135.697 17.4C135.857 16.98 135.992 16.605 136.102 16.275C136.062 16.225 136.027 16.175 135.997 16.125C135.977 16.065 135.967 15.99 135.967 15.9C135.967 15.61 136.052 15.35 136.222 15.12C136.392 14.89 136.557 14.775 136.717 14.775C136.847 14.775 136.927 14.84 136.957 14.97C136.997 15.1 137.017 15.19 137.017 15.24C137.017 15.32 136.987 15.42 136.927 15.54C136.877 15.66 136.852 15.75 136.852 15.81C136.852 15.9 136.932 16 137.092 16.11C137.262 16.21 137.452 16.335 137.662 16.485C137.882 16.625 138.072 16.805 138.232 17.025C138.402 17.245 138.487 17.52 138.487 17.85C138.487 18.14 138.427 18.44 138.307 18.75C138.187 19.06 138.062 19.35 137.932 19.62C137.812 19.89 137.752 20.125 137.752 20.325C137.752 20.455 137.787 20.545 137.857 20.595C137.937 20.635 138.027 20.655 138.127 20.655C138.367 20.655 138.612 20.58 138.862 20.43C139.122 20.28 139.367 20.09 139.597 19.86C139.837 19.62 140.047 19.37 140.227 19.11C140.417 18.85 140.562 18.61 140.662 18.39L140.932 18.57C140.732 19.01 140.467 19.45 140.137 19.89C139.817 20.32 139.452 20.68 139.042 20.97C138.632 21.26 138.197 21.405 137.737 21.405C137.367 21.405 137.062 21.305 136.822 21.105C136.592 20.915 136.477 20.65 136.477 20.31C136.477 20.03 136.542 19.725 136.672 19.395C136.812 19.065 136.947 18.745 137.077 18.435C137.217 18.115 137.287 17.835 137.287 17.595C137.287 17.345 137.207 17.15 137.047 17.01C136.897 16.87 136.727 16.74 136.537 16.62C136.407 17.03 136.252 17.46 136.072 17.91C135.902 18.36 135.687 18.785 135.427 19.185C135.177 19.575 134.867 19.895 134.497 20.145C134.137 20.385 133.707 20.505 133.207 20.505C133.147 20.505 133.082 20.505 133.012 20.505C132.952 20.495 132.887 20.485 132.817 20.475C132.537 20.925 132.187 21.305 131.767 21.615C131.357 21.935 130.872 22.095 130.312 22.095ZM132.412 19.74C132.492 19.55 132.557 19.355 132.607 19.155C132.657 18.945 132.682 18.715 132.682 18.465C132.682 18.155 132.642 17.905 132.562 17.715C132.492 17.515 132.387 17.415 132.247 17.415C132.117 17.415 132.002 17.505 131.902 17.685C131.812 17.865 131.767 18.085 131.767 18.345C131.767 18.585 131.817 18.835 131.917 19.095C132.017 19.355 132.182 19.57 132.412 19.74ZM130.762 16.065C131.002 15.835 131.237 15.575 131.467 15.285C131.697 14.985 131.912 14.67 132.112 14.34C132.312 14.01 132.487 13.69 132.637 13.38C132.797 13.06 132.927 12.77 133.027 12.51C133.127 12.24 133.192 12.02 133.222 11.85C133.232 11.82 133.237 11.785 133.237 11.745C133.237 11.695 133.227 11.675 133.207 11.685C133.117 11.705 132.972 11.845 132.772 12.105C132.572 12.365 132.347 12.705 132.097 13.125C131.847 13.545 131.602 14.01 131.362 14.52C131.132 15.03 130.932 15.545 130.762 16.065ZM141.134 21.705C140.804 21.705 140.519 21.595 140.279 21.375C140.029 21.155 139.904 20.825 139.904 20.385C139.904 20.035 139.984 19.655 140.144 19.245C140.304 18.835 140.524 18.43 140.804 18.03C141.084 17.63 141.404 17.27 141.764 16.95C142.124 16.62 142.509 16.355 142.919 16.155C143.329 15.955 143.739 15.855 144.149 15.855C144.579 15.855 144.944 15.965 145.244 16.185C145.544 16.405 145.694 16.695 145.694 17.055C145.694 17.325 145.599 17.52 145.409 17.64C145.219 17.76 144.994 17.795 144.734 17.745C144.754 17.655 144.769 17.565 144.779 17.475C144.799 17.385 144.809 17.29 144.809 17.19C144.809 16.99 144.769 16.81 144.689 16.65C144.609 16.49 144.439 16.41 144.179 16.41C143.899 16.41 143.614 16.505 143.324 16.695C143.034 16.885 142.754 17.135 142.484 17.445C142.224 17.745 141.989 18.08 141.779 18.45C141.569 18.81 141.404 19.165 141.284 19.515C141.164 19.865 141.104 20.18 141.104 20.46C141.104 20.78 141.219 20.94 141.449 20.94C141.679 20.94 141.934 20.83 142.214 20.61C142.494 20.38 142.774 20.095 143.054 19.755C143.344 19.415 143.619 19.07 143.879 18.72C144.139 18.36 144.364 18.055 144.554 17.805C144.584 17.755 144.624 17.73 144.674 17.73C144.714 17.74 144.789 17.765 144.899 17.805C145.019 17.835 145.129 17.885 145.229 17.955C145.329 18.025 145.379 18.115 145.379 18.225C145.379 18.325 145.334 18.455 145.244 18.615C145.164 18.765 145.064 18.935 144.944 19.125C144.834 19.305 144.734 19.49 144.644 19.68C144.564 19.86 144.524 20.035 144.524 20.205C144.524 20.335 144.559 20.46 144.629 20.58C144.699 20.69 144.814 20.745 144.974 20.745C145.214 20.745 145.549 20.57 145.979 20.22C146.419 19.86 146.864 19.255 147.314 18.405L147.599 18.69C147.359 19.23 147.069 19.71 146.729 20.13C146.399 20.54 146.049 20.86 145.679 21.09C145.309 21.33 144.934 21.45 144.554 21.45C144.144 21.45 143.839 21.32 143.639 21.06C143.439 20.8 143.329 20.52 143.309 20.22C143.309 20.2 143.309 20.185 143.309 20.175C143.309 20.165 143.309 20.155 143.309 20.145C142.909 20.625 142.539 21.005 142.199 21.285C141.869 21.565 141.514 21.705 141.134 21.705ZM148.325 21.69C147.885 21.69 147.53 21.56 147.26 21.3C146.99 21.04 146.855 20.645 146.855 20.115C146.855 19.705 146.93 19.195 147.08 18.585C147.24 17.975 147.44 17.345 147.68 16.695C147.61 16.675 147.525 16.66 147.425 16.65C147.335 16.63 147.245 16.6 147.155 16.56V16.095C147.315 16.115 147.445 16.13 147.545 16.14C147.655 16.15 147.765 16.16 147.875 16.17C148.085 15.64 148.31 15.13 148.55 14.64C148.8 14.14 149.045 13.695 149.285 13.305C149.535 12.915 149.77 12.61 149.99 12.39C150.21 12.16 150.405 12.045 150.575 12.045C150.675 12.045 150.77 12.085 150.86 12.165C150.95 12.235 150.995 12.34 150.995 12.48C150.995 12.68 150.89 12.965 150.68 13.335C150.48 13.705 150.23 14.14 149.93 14.64C149.63 15.13 149.34 15.655 149.06 16.215C149.14 16.215 149.22 16.215 149.3 16.215C149.38 16.215 149.455 16.215 149.525 16.215C149.965 16.215 150.36 16.21 150.71 16.2C151.07 16.18 151.435 16.15 151.805 16.11V16.605C151.255 16.655 150.75 16.695 150.29 16.725C149.83 16.755 149.39 16.775 148.97 16.785C148.94 16.785 148.91 16.785 148.88 16.785C148.85 16.785 148.82 16.785 148.79 16.785C148.58 17.275 148.395 17.78 148.235 18.3C148.085 18.81 148.01 19.31 148.01 19.8C148.01 20.21 148.075 20.5 148.205 20.67C148.335 20.84 148.54 20.925 148.82 20.925C149.32 20.925 149.83 20.7 150.35 20.25C150.88 19.79 151.34 19.17 151.73 18.39L151.94 18.54C151.68 19.13 151.355 19.665 150.965 20.145C150.585 20.625 150.17 21 149.72 21.27C149.27 21.55 148.805 21.69 148.325 21.69ZM152.481 21.45C152.041 21.45 151.711 21.32 151.491 21.06C151.271 20.8 151.161 20.485 151.161 20.115C151.161 19.885 151.201 19.595 151.281 19.245C151.361 18.895 151.471 18.53 151.611 18.15C151.761 17.76 151.931 17.395 152.121 17.055C152.311 16.715 152.516 16.44 152.736 16.23C152.956 16.01 153.176 15.9 153.396 15.9C153.516 15.9 153.621 15.94 153.711 16.02C153.801 16.09 153.846 16.195 153.846 16.335C153.846 16.465 153.766 16.66 153.606 16.92C153.456 17.18 153.276 17.48 153.066 17.82C152.866 18.16 152.686 18.515 152.526 18.885C152.376 19.245 152.301 19.59 152.301 19.92C152.301 20.24 152.356 20.455 152.466 20.565C152.586 20.665 152.756 20.715 152.976 20.715C153.316 20.715 153.686 20.545 154.086 20.205C154.486 19.865 154.901 19.27 155.331 18.42L155.556 18.66C155.206 19.54 154.761 20.225 154.221 20.715C153.681 21.205 153.101 21.45 152.481 21.45ZM154.251 14.685C154.061 14.685 153.886 14.64 153.726 14.55C153.576 14.45 153.501 14.3 153.501 14.1C153.501 13.86 153.631 13.655 153.891 13.485C154.151 13.315 154.421 13.23 154.701 13.23C154.881 13.23 155.031 13.27 155.151 13.35C155.281 13.43 155.346 13.575 155.346 13.785C155.346 13.995 155.231 14.2 155.001 14.4C154.771 14.59 154.521 14.685 154.251 14.685ZM155.933 21.48C155.483 21.48 155.173 21.33 155.003 21.03C154.843 20.74 154.763 20.42 154.763 20.07C154.763 19.75 154.813 19.425 154.913 19.095C155.013 18.755 155.148 18.44 155.318 18.15C155.498 17.86 155.693 17.63 155.903 17.46C156.123 17.28 156.343 17.19 156.563 17.19C156.633 17.19 156.713 17.205 156.803 17.235C156.903 17.255 156.973 17.29 157.013 17.34C156.893 17.49 156.768 17.675 156.638 17.895C156.518 18.115 156.403 18.35 156.293 18.6C156.193 18.84 156.113 19.085 156.053 19.335C155.993 19.585 155.963 19.815 155.963 20.025C155.963 20.225 155.998 20.39 156.068 20.52C156.148 20.65 156.283 20.715 156.473 20.715C156.663 20.715 156.888 20.61 157.148 20.4C157.418 20.18 157.673 19.93 157.913 19.65C157.593 19.36 157.363 19.045 157.223 18.705C157.083 18.355 157.013 17.935 157.013 17.445C157.013 17.235 157.063 16.995 157.163 16.725C157.273 16.455 157.443 16.22 157.673 16.02C157.913 15.82 158.233 15.72 158.633 15.72C159.063 15.72 159.363 15.84 159.533 16.08C159.713 16.32 159.803 16.605 159.803 16.935C159.803 17.305 159.703 17.72 159.503 18.18C159.313 18.64 159.083 19.075 158.813 19.485C158.933 19.545 159.073 19.575 159.233 19.575C159.383 19.575 159.563 19.54 159.773 19.47C159.983 19.4 160.188 19.285 160.388 19.125C160.588 18.955 160.748 18.73 160.868 18.45L161.138 18.645C160.918 19.155 160.623 19.53 160.253 19.77C159.893 20 159.538 20.115 159.188 20.115C159.058 20.115 158.928 20.105 158.798 20.085C158.668 20.055 158.548 20.02 158.438 19.98C158.098 20.38 157.708 20.73 157.268 21.03C156.828 21.33 156.383 21.48 155.933 21.48ZM158.303 19.17C158.543 18.82 158.748 18.445 158.918 18.045C159.088 17.645 159.173 17.275 159.173 16.935C159.173 16.705 159.138 16.54 159.068 16.44C158.998 16.33 158.893 16.275 158.753 16.275C158.563 16.275 158.368 16.41 158.168 16.68C157.968 16.95 157.868 17.29 157.868 17.7C157.868 17.91 157.903 18.165 157.973 18.465C158.053 18.765 158.163 19 158.303 19.17ZM165.579 21.3C165.189 21.3 164.889 21.2 164.679 21C164.479 20.81 164.379 20.565 164.379 20.265C164.379 20.065 164.414 19.855 164.484 19.635C164.554 19.405 164.624 19.175 164.694 18.945C164.764 18.715 164.799 18.495 164.799 18.285C164.799 18.065 164.744 17.915 164.634 17.835C164.534 17.745 164.414 17.7 164.274 17.7C163.974 17.7 163.664 17.825 163.344 18.075C163.034 18.315 162.729 18.62 162.429 18.99C162.139 19.36 161.864 19.745 161.604 20.145C161.344 20.545 161.119 20.905 160.929 21.225C160.739 21.225 160.559 21.19 160.389 21.12C160.219 21.06 160.074 20.95 159.954 20.79C159.964 20.74 160.024 20.59 160.134 20.34C160.234 20.08 160.349 19.775 160.479 19.425C160.609 19.065 160.724 18.69 160.824 18.3C160.924 17.91 160.974 17.555 160.974 17.235C161.044 17.155 161.149 17.075 161.289 16.995C161.439 16.915 161.594 16.875 161.754 16.875C162.104 16.875 162.279 17.025 162.279 17.325C162.279 17.445 162.254 17.625 162.204 17.865C162.164 18.095 162.104 18.36 162.024 18.66C162.284 18.31 162.569 17.98 162.879 17.67C163.189 17.36 163.509 17.11 163.839 16.92C164.179 16.72 164.519 16.62 164.859 16.62C165.289 16.62 165.604 16.765 165.804 17.055C166.014 17.345 166.119 17.665 166.119 18.015C166.119 18.315 166.069 18.595 165.969 18.855C165.869 19.115 165.769 19.36 165.669 19.59C165.579 19.82 165.534 20.045 165.534 20.265C165.534 20.425 165.569 20.54 165.639 20.61C165.719 20.67 165.804 20.7 165.894 20.7C166.134 20.7 166.384 20.585 166.644 20.355C166.904 20.125 167.149 19.835 167.379 19.485C167.619 19.125 167.829 18.765 168.009 18.405L168.264 18.615C168.054 19.105 167.814 19.555 167.544 19.965C167.284 20.365 166.989 20.69 166.659 20.94C166.339 21.18 165.979 21.3 165.579 21.3Z" fill="#F8B133"></path></svg>