<svg xmlns="http://www.w3.org/2000/svg" width="58" height="35" viewBox="0 0 58 35" fill="none"><path d="M57.9095 27.8361C57.3672 23.0282 53.975 19.1764 49.5256 17.8894C50.4817 17.0069 51.0792 15.7474 51.0792 14.3501C51.0792 11.6934 48.9097 9.52384 46.2529 9.52384C43.5962 9.52384 41.4267 11.6934 41.4267 14.3501C41.4267 15.7474 42.0334 17.0069 42.9803 17.8894C41.9047 18.2019 40.8751 18.6616 39.919 19.2775C37.9426 17.632 35.6076 16.3909 33.0427 15.6923C32.9324 15.6647 32.8221 15.6463 32.7118 15.6187C35.102 14.1295 36.7107 11.4727 36.7107 8.44827C36.7107 3.78747 32.9232 0 28.2624 0C23.6016 0 19.8142 3.78747 19.8142 8.44827C19.8142 11.4727 21.4137 14.1203 23.8131 15.6187C23.7028 15.6463 23.5924 15.6647 23.4821 15.6923C21.1655 16.3174 19.0511 17.393 17.2126 18.8087C16.4863 18.4226 15.7325 18.11 14.9419 17.8802C15.898 16.9977 16.4955 15.7382 16.4955 14.3409C16.4955 11.6842 14.326 9.51465 11.6693 9.51465C9.0125 9.51465 6.84298 11.6842 6.84298 14.3409C6.84298 15.7382 7.44052 16.9977 8.39658 17.8802C3.94722 19.1672 0.555037 23.019 0.0126564 27.8269C-0.0516939 28.3785 0.132164 28.9392 0.49988 29.3621C0.885982 29.7942 1.43756 30.0424 2.00752 30.0424H10.3271C10.3179 30.0975 10.2995 30.1619 10.2903 30.2171C10.1248 31.1823 10.3914 32.1751 11.0349 32.9381C11.6968 33.7195 12.6621 34.17 13.6917 34.17H42.8148C43.8444 34.17 44.8097 33.7195 45.4715 32.9381C46.115 32.1751 46.3816 31.1823 46.2162 30.2171C46.207 30.1619 46.1886 30.0975 46.1794 30.0424H55.8963C56.4754 30.0424 57.0178 29.7942 57.4039 29.3621C57.79 28.9484 57.9739 28.3877 57.9095 27.8361ZM43.1733 14.3501C43.1733 12.6586 44.5523 11.2797 46.2437 11.2797C47.9352 11.2797 49.3142 12.6586 49.3142 14.3501C49.3142 16.0416 47.9352 17.4205 46.2437 17.4205C44.5523 17.4205 43.1733 16.0508 43.1733 14.3501ZM21.57 8.45747C21.57 4.77111 24.5761 1.76504 28.2624 1.76504C31.9488 1.76504 34.9549 4.77111 34.9549 8.45747C34.9549 11.868 32.39 14.6811 29.0898 15.0947C28.5382 15.0672 27.9866 15.0672 27.4351 15.0947C24.1348 14.6902 21.57 11.868 21.57 8.45747ZM8.59882 14.3501C8.59882 12.6586 9.97776 11.2797 11.6693 11.2797C13.3607 11.2797 14.7397 12.6586 14.7397 14.3501C14.7397 16.0416 13.3607 17.4205 11.6693 17.4205C9.97776 17.4205 8.59882 16.0508 8.59882 14.3501ZM2.01671 28.2865C1.90639 28.2865 1.84204 28.2222 1.81446 28.1946C1.78689 28.1578 1.75011 28.1027 1.75931 28.0291C2.32927 22.9822 6.59477 19.1764 11.6784 19.1764C13.0942 19.1764 14.4731 19.4797 15.7509 20.0497C13.4067 22.2744 11.6601 25.1058 10.7592 28.2773H2.01671V28.2865ZM44.1386 31.7982C43.8076 32.1843 43.3296 32.405 42.824 32.405H13.7009C13.1953 32.405 12.7172 32.1843 12.3863 31.7982C12.0737 31.4305 11.945 30.9709 12.0278 30.502C13.0942 24.2141 17.7733 19.0661 23.9418 17.393C25.0449 17.0896 26.1756 16.9149 27.3248 16.8506C27.6373 16.8874 27.9499 16.9057 28.2624 16.9057C28.5842 16.9057 28.8967 16.8874 29.2001 16.8506C30.3492 16.9149 31.4799 17.0988 32.5831 17.393C38.7515 19.0661 43.4307 24.2141 44.4971 30.5112C44.5798 30.9709 44.4511 31.4305 44.1386 31.7982ZM56.1077 28.1946C56.0801 28.2222 56.0158 28.2865 55.9055 28.2865H45.7749C44.9292 25.3356 43.3572 22.6789 41.252 20.5277C42.7688 19.6452 44.4695 19.1856 46.2529 19.1856C51.3366 19.1856 55.6021 22.9914 56.1721 28.0383C56.1721 28.1027 56.1445 28.1578 56.1077 28.1946Z" fill="url(#paint0_linear_2079_176)"></path><defs><linearGradient id="paint0_linear_2079_176" x1="0" y1="17.085" x2="57.9221" y2="17.085" gradientUnits="userSpaceOnUse"><stop stop-color="#F8B133"></stop><stop offset="1" stop-color="#D22635"></stop></linearGradient></defs></svg>