<svg xmlns="http://www.w3.org/2000/svg" width="62" height="37" viewBox="0 0 62 37" fill="none"><path d="M0.716376 25.2291L7.47521 25.2884C7.48368 25.2884 7.49216 25.2884 7.50063 25.2884C9.04629 25.2884 10.3585 24.0601 10.3967 22.434L11.7147 22.4458C11.106 23.9489 11.461 25.7112 12.7185 26.7372C13.54 27.4078 14.5974 27.7077 15.7444 27.4699C15.6049 28.693 16.0401 29.9402 17.0195 30.7388C18.1819 31.686 19.7957 31.8497 21.1689 31.0133C21.3017 31.8745 21.7138 32.6825 22.4171 33.256C23.5176 34.1527 24.9934 34.3142 26.2449 33.7226C26.3358 34.6706 26.7751 35.5697 27.5427 36.1911C29.0088 37.3784 31.1895 37.2825 32.5306 35.745C33.6619 35.925 34.7561 35.5804 35.5545 34.8882C36.2478 34.2972 36.6608 33.501 36.8079 32.6577C37.9789 33.7082 39.684 33.7664 40.9115 32.7153C44.6447 32.6914 46.7802 30.1012 46.8271 30.0375C47.2601 29.5932 47.824 29.3268 48.481 29.3466L51.3752 29.3722C51.7998 30.4461 52.8345 31.2129 54.05 31.2236L60.8088 31.2829C60.8116 31.2829 60.8154 31.2829 60.8154 31.2829C61.0056 31.2829 61.1872 31.2085 61.3228 31.0749C61.4593 30.9402 61.5374 30.7567 61.5384 30.5646L61.6918 8.16918C61.6946 7.77099 61.3736 7.44528 60.9754 7.44152L54.2176 7.38222C53.1286 7.40048 52.1454 7.92705 51.6106 8.9948L48.2184 8.96462C47.1349 8.9552 46.187 8.26709 45.913 7.29091C44.5921 2.57475 38.8661 0.958972 33.9326 1.1769C33.7175 1.18607 33.5046 1.21326 33.2912 1.2362C30.8186 -0.244182 25.8602 -0.11139 20.1617 0.199778C18.5934 0.196954 17.0892 0.787181 15.953 1.91114C15.2206 2.63409 14.685 3.5453 14.4054 4.54783C14.2679 5.04487 13.7577 5.4054 13.1995 5.4054L10.5151 5.3824C10.5053 3.78664 9.22354 2.48336 7.6362 2.46936L0.877362 2.41006C0.874538 2.41006 0.870769 2.41006 0.870769 2.41006C0.680614 2.41006 0.498941 2.48443 0.363383 2.6181C0.22689 2.75271 0.148754 2.93627 0.147819 3.12831L1.84954e-05 24.5015C-0.00280583 24.8997 0.318194 25.2254 0.716376 25.2291ZM13.6325 25.617C12.7053 24.8601 12.5895 23.4161 13.3746 22.3985L15.407 19.7637C16.1629 18.7828 17.54 18.5192 18.4757 19.181C19.5314 19.9285 19.7144 21.3843 18.9558 22.3684L16.7248 25.2592C16.0217 26.17 14.6274 26.4287 13.6325 25.617ZM17.9335 29.6186C17.0054 28.8618 16.8896 27.4168 17.6756 26.3983L22.1357 20.6165C22.9183 19.6028 24.5348 19.3802 25.5358 20.5629C26.1142 21.2459 26.1875 22.2397 25.7603 23.0572C25.6865 23.1538 20.707 29.6764 21.0249 29.26C20.3033 30.1946 18.9146 30.4187 17.9335 29.6186ZM23.3312 32.1358C22.4929 31.4522 22.3246 30.2102 22.8775 29.2252C27.2275 23.5893 26.719 24.2721 26.9438 23.901C27.7034 22.9326 29.0677 22.6764 29.9978 23.3333C31.0365 24.0674 31.2498 25.5205 30.4769 26.5206C30.4012 26.6189 26.3475 31.8759 26.4225 31.7771C25.745 32.6563 24.3522 32.9684 23.3312 32.1358ZM28.453 35.0671C27.5432 34.3311 27.4114 32.9325 28.1391 31.9187L30.8134 28.4515C31.4845 27.834 32.4474 27.6609 33.2369 28.0503C34.5526 28.7031 34.8603 30.3311 34.0408 31.4109L31.55 34.6915C30.8078 35.6657 29.4158 35.8476 28.453 35.0671ZM34.6122 33.7925C34.3486 34.0206 34.0298 34.1692 33.6964 34.2565L35.193 32.2854C35.2887 32.1593 35.3555 32.0187 35.4332 31.8834C35.4615 32.5888 35.1878 33.3011 34.6122 33.7925ZM54.1921 8.82812C54.1959 8.82812 54.2006 8.82812 54.2044 8.82812L60.2412 8.88084L60.0972 29.8304L54.0632 29.7777C53.2574 29.7711 52.6069 29.0999 52.6126 28.2819L52.7368 10.2947C52.7425 9.48844 53.3837 8.82812 54.1921 8.82812ZM33.9947 2.62091C38.2359 2.4326 43.4194 3.74772 44.5208 7.68062C44.9679 9.27337 46.4835 10.3964 48.2061 10.4105L51.2899 10.4378L51.2686 13.523L51.1685 27.9242L48.4933 27.9006C47.4747 27.8903 46.4985 28.3035 45.7464 29.0792C45.7311 29.0986 44.3924 30.7651 41.9595 31.177C42.0811 30.7886 42.1264 30.3846 42.0954 29.9804C43.118 30.1073 43.9895 29.781 44.6516 29.1432C45.3645 28.4569 45.6768 27.5228 45.6049 26.6086C46.6383 26.7342 47.5001 26.4017 48.1525 25.7723L48.289 25.6424C49.5052 24.4723 49.5927 22.5538 48.5121 21.3009L41.3222 12.0615C41.5743 11.8851 41.8205 11.6952 42.0535 11.4789C42.3453 11.2069 42.3623 10.7494 42.0912 10.4566C41.8182 10.1639 41.3616 10.1488 41.0689 10.419C39.8715 11.5317 38.3286 11.9703 36.8413 11.6248C35.2966 11.2653 34.0427 10.0952 33.4007 8.41487C33.3132 8.1833 33.1117 8.01292 32.8689 7.96397C32.6307 7.9169 32.3756 7.99315 32.2043 8.17295L27.7781 12.7902C26.463 14.1627 24.5822 14.7934 22.8737 14.4329C22.2166 14.2954 21.6292 14.0488 21.0776 13.6779C20.8197 13.5047 20.7566 13.2506 20.7434 13.115C20.719 12.8797 20.798 12.6481 20.9609 12.4815L27.7997 5.48448C29.5083 3.73546 31.7072 2.71882 33.9947 2.62091ZM15.7986 4.93474C16.0104 4.17602 16.4142 3.48696 16.9687 2.94003C17.8272 2.08999 18.9634 1.6278 20.1918 1.64474C23.5989 1.45883 27.9807 1.22308 30.7773 1.83549C29.3026 2.392 27.9312 3.28057 26.7661 4.47348L19.9264 11.4714C19.4632 11.9459 19.2364 12.6001 19.3051 13.2637C19.3728 13.9236 19.7259 14.512 20.2718 14.8781C20.9713 15.3488 21.7469 15.6745 22.5772 15.8487C24.7724 16.308 27.1634 15.5201 28.8211 13.7899L32.5187 9.93421C33.4139 11.5326 34.8269 12.6406 36.5137 13.0331C37.7058 13.3097 38.9169 13.2048 40.034 12.7607L47.3938 22.2168C47.9962 22.9163 47.9492 23.963 47.2883 24.5994L47.1509 24.7302C46.4776 25.3769 45.3801 25.3688 44.7241 24.6333L35.4359 14.223C35.1695 13.9236 34.712 13.8982 34.4155 14.1646C34.1171 14.4301 34.0917 14.8876 34.3571 15.185L43.7357 25.697C44.3504 26.386 44.3109 27.4639 43.6482 28.1021C42.9102 28.8127 41.8411 28.6764 41.2421 28.0287L32.5102 18.5889C32.4419 18.5156 32.362 18.4597 32.276 18.4212C32.018 18.3038 31.705 18.3449 31.486 18.5475C31.1923 18.8186 31.1744 19.2761 31.4456 19.5688L40.2113 29.0463C40.8533 29.7372 40.8251 30.8235 40.136 31.4778L40.0541 31.5587C39.305 32.2807 38.1951 32.1316 37.5972 31.4203C37.516 31.3238 35.7455 29.2231 35.8581 29.3577C35.6199 28.1378 34.8675 27.2442 33.8789 26.755C33.7757 26.7039 33.6676 26.6724 33.5616 26.6324L32.3762 25.2248C32.3963 23.9091 31.784 22.8249 30.8318 22.1528C29.845 21.4552 28.5753 21.3612 27.4652 21.7869C27.4296 21.0062 27.1599 20.2436 26.6391 19.6291C25.0833 17.79 22.3701 17.9456 20.991 19.7336L20.727 20.0759C20.5095 19.2382 20.0271 18.5068 19.3098 18.0006C17.7246 16.8794 15.5077 17.2682 14.2623 18.8807L12.6215 21.0079L10.4122 20.9884L10.4629 13.5178L10.5089 6.82872L13.1929 6.85132C14.4157 6.85131 15.487 6.06246 15.7986 4.93474ZM1.58901 3.86254L7.62301 3.91526C8.42786 3.92185 9.07833 4.59303 9.07268 5.41106L9.06804 6.0897L9.06703 6.09447L9.01573 13.6892L8.95596 22.3759C8.94989 23.2341 8.22711 23.8735 7.48841 23.8425L1.45064 23.7898L1.58901 3.86254Z" fill="url(#paint0_linear_2079_179)"></path><defs><linearGradient id="paint0_linear_2079_179" x1="0" y1="18.5" x2="61.6918" y2="18.5" gradientUnits="userSpaceOnUse"><stop stop-color="#F8B133"></stop><stop offset="1" stop-color="#D22635"></stop></linearGradient></defs></svg>