<svg xmlns="http://www.w3.org/2000/svg" width="43" height="45" viewBox="0 0 43 45" fill="none"><path d="M10.8423 42.0787C10.6692 42.0787 10.4963 42.0126 10.3643 41.8807L6.04175 37.5581C5.77775 37.2941 5.77775 36.8661 6.04175 36.6021C6.30576 36.3383 6.73383 36.3384 6.99764 36.6021L11.3201 40.9247C11.5842 41.1887 11.5842 41.6167 11.3201 41.8807C11.1882 42.0127 11.0152 42.0787 10.8423 42.0787Z" fill="url(#paint0_linear_2079_183)"></path><path d="M8.41315 44.509C8.24011 44.509 8.06717 44.443 7.93516 44.311L0.197957 36.5738C0.0711677 36.4471 0 36.2751 0 36.0958C0 35.9166 0.0711677 35.7446 0.197957 35.6179L7.57594 28.24C7.72079 28.0951 7.92396 28.0243 8.12723 28.046L26.0852 30.007C27.4634 30.1287 28.5994 31.1212 28.9296 32.4352L36.5604 24.8043C37.2113 24.1535 38.0767 23.7949 38.9972 23.7949C39.9177 23.7949 40.7831 24.1535 41.4341 24.8043C42.7776 26.148 42.7776 28.3343 41.4341 29.678L28.5822 42.5299C28.4493 42.6628 28.2687 42.7344 28.0788 42.7274L11.1123 42.09L8.89115 44.3109C8.75905 44.443 8.5861 44.509 8.41315 44.509ZM1.63184 36.0958L8.41315 42.8772L10.3649 40.9256C10.4979 40.7926 10.6807 40.7224 10.8682 40.7281L27.8347 41.3655L40.4783 28.7219C41.2948 27.9054 41.2948 26.5766 40.4783 25.7602C40.0826 25.3646 39.5567 25.1466 38.9974 25.1466C38.438 25.1466 37.9121 25.3645 37.5165 25.7601L28.7505 34.5261C28.6061 34.8521 28.4068 35.1554 28.1573 35.422C27.5134 36.1109 26.6039 36.4833 25.6614 36.4415L15.7617 36.0112C15.3888 35.9949 15.0995 35.6795 15.1158 35.3065C15.132 34.9335 15.4464 34.6428 15.8205 34.6606L25.7202 35.091C26.2669 35.1143 26.7958 34.899 27.1699 34.4989C27.2723 34.3893 27.3602 34.2691 27.4325 34.1412C27.447 34.0107 27.4995 33.8837 27.5899 33.7779C27.6661 33.5336 27.6924 33.2735 27.6634 33.0126C27.565 32.1272 26.8493 31.4293 25.9617 31.3531C25.9564 31.3526 25.9512 31.3521 25.946 31.3516L8.30278 29.4251L1.63184 36.0958Z" fill="url(#paint1_linear_2079_183)"></path><path d="M23.9004 8.65225C20.088 8.65225 16.3781 7.92753 13.1719 6.55651C12.9814 6.47511 12.8389 6.31095 12.785 6.11097C12.7311 5.91108 12.7718 5.69738 12.8955 5.53139C14.1453 3.85262 15.7876 2.46113 17.6445 1.50737C19.5919 0.507155 21.6967 0 23.9004 0C26.1041 0 28.209 0.507155 30.1563 1.50737C32.0133 2.46113 33.6554 3.85262 34.9054 5.53129C35.0291 5.69738 35.0697 5.91098 35.0159 6.11087C34.962 6.31076 34.8194 6.47501 34.6291 6.55642C31.4231 7.92753 27.7132 8.65225 23.9004 8.65225ZM14.5319 5.64814C17.3758 6.73091 20.5945 7.30035 23.9003 7.30035C27.2065 7.30035 30.4252 6.73101 33.2689 5.64814C30.9168 2.90697 27.5494 1.3519 23.9003 1.3519C20.2513 1.3519 16.884 2.90697 14.5319 5.64814Z" fill="url(#paint2_linear_2079_183)"></path><path d="M23.9004 27.4236C21.6966 27.4236 19.5918 26.9165 17.6444 25.9164C15.7875 24.9625 14.1453 23.5711 12.8955 21.8923C12.7718 21.7263 12.7311 21.5127 12.785 21.3128C12.839 21.1129 12.9815 20.9486 13.1719 20.8672C16.378 19.4962 20.0879 18.7715 23.9004 18.7715C27.713 18.7715 31.4229 19.4962 34.629 20.8672C34.8194 20.9486 34.962 21.1128 35.0159 21.3128C35.0698 21.5127 35.0292 21.7263 34.9054 21.8923C33.6556 23.5711 32.0134 24.9625 30.1563 25.9164C28.209 26.9165 26.1042 27.4236 23.9004 27.4236ZM14.5319 21.7756C16.8838 24.5167 20.2513 26.0717 23.9003 26.0717C27.5493 26.0717 30.9168 24.5167 33.2688 21.7756C30.4251 20.6927 27.2064 20.1234 23.9003 20.1234C20.5943 20.1234 17.3757 20.6927 14.5319 21.7756Z" fill="url(#paint3_linear_2079_183)"></path><path d="M23.8923 27.4242C19.907 27.4242 16.7852 21.4011 16.7852 13.7121C16.7852 6.02309 19.907 0 23.8923 0C27.8776 0 30.9995 6.02309 30.9995 13.7121C30.9994 21.4011 27.8776 27.4242 23.8923 27.4242ZM23.8923 1.3519C20.7727 1.3519 18.1371 7.0122 18.1371 13.7121C18.1371 20.412 20.7726 26.0723 23.8923 26.0723C27.012 26.0723 29.6476 20.412 29.6476 13.7121C29.6476 7.0122 27.0119 1.3519 23.8923 1.3519Z" fill="url(#paint4_linear_2079_183)"></path><path d="M23.8986 27.4242C23.5253 27.4242 23.2227 27.1216 23.2227 26.7483V0.675949C23.2227 0.302632 23.5253 0 23.8986 0C24.2719 0 24.5746 0.302632 24.5746 0.675949V26.7483C24.5746 27.1217 24.2719 27.4242 23.8986 27.4242Z" fill="url(#paint5_linear_2079_183)"></path><path d="M36.9397 14.4007H10.8674C10.494 14.4007 10.1914 14.0981 10.1914 13.7248C10.1914 13.3515 10.494 13.0488 10.8674 13.0488H36.9397C37.313 13.0488 37.6156 13.3515 37.6156 13.7248C37.6156 14.0981 37.313 14.4007 36.9397 14.4007Z" fill="url(#paint6_linear_2079_183)"></path><path d="M23.9035 27.4242C16.3426 27.4242 10.1914 21.273 10.1914 13.7121C10.1914 6.15123 16.3426 0 23.9035 0C31.4644 0 37.6156 6.15123 37.6156 13.7121C37.6156 21.273 31.4643 27.4242 23.9035 27.4242ZM23.9035 1.3519C17.0881 1.3519 11.5433 6.89661 11.5433 13.7121C11.5433 20.5276 17.088 26.0723 23.9035 26.0723C30.719 26.0723 36.2637 20.5275 36.2637 13.7121C36.2637 6.89671 30.7189 1.3519 23.9035 1.3519Z" fill="url(#paint7_linear_2079_183)"></path><defs><linearGradient id="paint0_linear_2079_183" x1="5.84375" y1="39.2415" x2="11.5182" y2="39.2415" gradientUnits="userSpaceOnUse"><stop stop-color="#F8B133"></stop><stop offset="1" stop-color="#D22635"></stop></linearGradient><linearGradient id="paint1_linear_2079_183" x1="0" y1="34.152" x2="42.4417" y2="34.152" gradientUnits="userSpaceOnUse"><stop stop-color="#F8B133"></stop><stop offset="1" stop-color="#D22635"></stop></linearGradient><linearGradient id="paint2_linear_2079_183" x1="12.7617" y1="4.32612" x2="35.0392" y2="4.32612" gradientUnits="userSpaceOnUse"><stop stop-color="#F8B133"></stop><stop offset="1" stop-color="#D22635"></stop></linearGradient><linearGradient id="paint3_linear_2079_183" x1="12.7617" y1="23.0976" x2="35.0392" y2="23.0976" gradientUnits="userSpaceOnUse"><stop stop-color="#F8B133"></stop><stop offset="1" stop-color="#D22635"></stop></linearGradient><linearGradient id="paint4_linear_2079_183" x1="16.7852" y1="13.7121" x2="30.9995" y2="13.7121" gradientUnits="userSpaceOnUse"><stop stop-color="#F8B133"></stop><stop offset="1" stop-color="#D22635"></stop></linearGradient><linearGradient id="paint5_linear_2079_183" x1="23.2227" y1="13.7121" x2="24.5746" y2="13.7121" gradientUnits="userSpaceOnUse"><stop stop-color="#F8B133"></stop><stop offset="1" stop-color="#D22635"></stop></linearGradient><linearGradient id="paint6_linear_2079_183" x1="10.1914" y1="13.7248" x2="37.6156" y2="13.7248" gradientUnits="userSpaceOnUse"><stop stop-color="#F8B133"></stop><stop offset="1" stop-color="#D22635"></stop></linearGradient><linearGradient id="paint7_linear_2079_183" x1="10.1914" y1="13.7121" x2="37.6156" y2="13.7121" gradientUnits="userSpaceOnUse"><stop stop-color="#F8B133"></stop><stop offset="1" stop-color="#D22635"></stop></linearGradient></defs></svg>