<?xml version="1.0" encoding="UTF-8"?>
<svg version="1.1" xmlns="http://www.w3.org/2000/svg" width="16" height="16">
<path d="M0 0 C5.28 0 10.56 0 16 0 C16 5.28 16 10.56 16 16 C10.35573231 11.31645873 4.9941954 6.3792354 0 1 C0 0.67 0 0.34 0 0 Z " fill="#F2AA31" transform="translate(0,0)"/>
<path d="M0 0 C0 4.95 0 9.9 0 15 C-5.46875 10.60546875 -5.46875 10.60546875 -7 9 C-7 6 -7 6 -5.72265625 4.39453125 C-5.17480469 3.87246094 -4.62695312 3.35039063 -4.0625 2.8125 C-3.51722656 2.28269531 -2.97195312 1.75289063 -2.41015625 1.20703125 C-1 -0 -1 -0 0 0 Z " fill="#D32636" transform="translate(16,1)"/>
</svg>
